

Release info:

General
Format                                   : Matroska
Format version                           : Version 2
File size                                : 1.60 GiB
Duration                                 : 1h 57mn
Overall bit rate                         : 1 951 Kbps
Movie name                               : Dutta Vs Dutta (2012 720p HD EngSub Bengali Movie


Video
ID                                       : 1
Format                                   : AVC
Format/Info                              : Advanced Video Codec
Format profile                           : High@L3.1
Format settings, CABAC                   : Yes
Format settings, ReFrames                : 4 frames
Muxing mode                              : Header stripping
Codec ID                                 : V_MPEG4/ISO/AVC
Duration                                 : 1h 57mn
Bit rate                                 : 1 500 Kbps
Width                                    : 1 280 pixels
Height                                   : 544 pixels
Display aspect ratio                     : 2.35:1
Frame rate mode                          : Constant
Frame rate                               : 29.970 fps
Color space                              : YUV
Chroma subsampling                       : 4:2:0
Bit depth                                : 8 bits
Scan type                                : Progressive
Bits/(Pixel*Frame)                       : 0.072
Stream size                              : 1.20 GiB (75%)
Title                                    : Dutta Vs Dutta (2012 720p HD EngSub Bengali Movie
Language                                 : Bengali
Default                                  : Yes
Forced                                   : No

Audio
ID                                       : 2
Format                                   : AC-3
Format/Info                              : Audio Coding 3
Mode extension                           : CM (complete main)
Format settings, Endianness              : Big
Muxing mode                              : Header stripping
Codec ID                                 : A_AC3
Duration                                 : 1h 57mn
Bit rate mode                            : Constant
Bit rate                                 : 448 Kbps
Channel(s)                               : 6 channels
Channel positions                        : Front: L C R, Side: L R, LFE
Sampling rate                            : 48.0 KHz
Bit depth                                : 16 bits
Compression mode                         : Lossy
Stream size                              : 377 MiB (23%)
Title                                    : Dutta Vs Dutta (2012 720p HD EngSub Bengali Movie
Language                                 : Bengali
Default                                  : Yes
Forced                                   : No

Text
ID                                       : 3
Format                                   : VobSub
Muxing mode                              : zlib
Codec ID                                 : S_VOBSUB
Codec ID/Info                            : The same subtitle format used on DVDs
Title                                    : Dutta Vs Dutta (2012 720p HD EngSub Bengali Movie
Language                                 : English
Default                                  : Yes
Forced                                   : No

Source:
credit to original movie ripper TEAM-DBU  (Thanks)

IMDB Info:

Anja Dutta's latest directional Bengali movie Dutta vs Dutta set on a plot of his own life again. Before that he has done a fabulous job in the movie Ranjana Ami Aar Ashbona. This film is based on Anjan Dutta's childhood life. The film is set up on a story of 1970s when Kolkata started seeing the rise of rock music bands, Hippie culture and Naxalite movements.

Director Anjan Dutt
Starring Anjan Dutt, Ronodeep Bose, Arpita Chatterjee, Roopa Ganguly
Release date November 23, 2012 (Kolkata)



Screen Shot:
 
http://www.shotpix.com/images/42811281283094489724.png 
http://www.shotpix.com/images/91803442858275929956.png 
http://www.shotpix.com/images/97189811612038912926.png 
http://www.shotpix.com/images/15685889105154823338.png 
http://www.shotpix.com/images/85478129680005502472.png 
http://www.shotpix.com/images/11295920053337076758.png